<?xml version="1.0" encoding="UTF-8" standalone="no"?>
<!DOCTYPE svg PUBLIC "-//W3C//DTD SVG 1.1//EN" "http://www.w3.org/Graphics/SVG/1.1/DTD/svg11.dtd">
<svg width="100%" height="100%" viewBox="0 0 168 48" version="1.1" xmlns="http://www.w3.org/2000/svg" xmlns:xlink="http://www.w3.org/1999/xlink" xml:space="preserve" xmlns:serif="http://www.serif.com/" style="fill-rule:evenodd;clip-rule:evenodd;stroke-linejoin:round;stroke-miterlimit:2;">
    <g transform="matrix(1,0,0,1,-28.7586,0)">
        <g id="Artboard1" transform="matrix(1,0,0,1,28.7586,0)">
            <rect x="0" y="0" width="168" height="48" style="fill:none;"/>
            <g transform="matrix(0.076962,0,0,0.076962,4.41914,3.11969)">
                <path d="M483.08,0L500.06,0C578.86,5.81 638.38,66.89 640.91,146.04C641.01,149.167 640.603,151.51 639.69,153.07C636.35,158.81 626.39,156.69 626.35,149.93C625.84,62.67 546.5,-1.52 460.75,18C437.777,23.227 417.457,34.103 399.79,50.63C342.62,104.1 342.41,194.41 399.94,247.95C424.88,271.16 456.88,283.58 491.13,284.06C501.57,284.21 501.76,298.7 489.79,298.54C405.86,297.42 339.81,228.16 342.27,144.49C344.55,66.79 405.97,4.99 483.08,0Z" style="fill:white;fill-rule:nonzero;"/>
                <path d="M584.55,149.97C583.91,201.31 543.75,241 492.64,242.3C486.62,242.45 482.65,235.69 487.34,231.77C488.373,230.903 490.133,230.403 492.62,230.27C538.01,227.83 571.37,194.73 572.57,149.48C572.81,140.78 584.66,141.09 584.55,149.97Z" style="fill:white;fill-rule:nonzero;"/>
                <path d="M453.54,519.99C435.11,544.65 401.61,549.57 376.55,531.95C355.58,517.21 347.24,490.46 352.39,465.68C362.44,417.19 420.85,399.26 453.66,438.68C453.726,438.761 453.826,438.807 453.93,438.807C454.121,438.807 454.279,438.651 454.28,438.46C454.24,418.047 454.23,397.56 454.25,377C454.26,369 465.09,366.53 468.94,373.09C469.82,374.59 470.26,376.78 470.26,379.66C470.247,430.94 470.243,482.22 470.25,533.5C470.25,541.15 459.08,543.12 455.42,536.75C453.27,533.01 454.29,524.72 454.23,520.21C454.23,520.21 454.23,520.21 454.23,520.21C454.23,520.001 454.058,519.83 453.85,519.83C453.727,519.83 453.611,519.89 453.54,519.99ZM376.08,508.25C386.58,523.59 404.27,530.06 422.06,525.18C442.21,519.65 455.15,499.63 454.89,479.69C454.61,458.77 442.42,440.1 421.66,434.26C405.9,429.82 388.14,435.13 378.15,447.6C365.32,463.62 364.44,491.26 376.08,508.25Z" style="fill:white;fill-rule:nonzero;"/>
                <path d="M662.99,377.3C662.99,372.89 659.41,369.31 655,369.31C650.59,369.31 647.01,372.89 647.01,377.3L647.01,532.7C647.01,537.11 650.59,540.69 655,540.69C659.41,540.69 662.99,537.11 662.99,532.7L662.99,377.3Z" style="fill:white;"/>
                <g transform="matrix(0.999925,-0.012217,0.012217,0.999925,711.09,384.83)">
                    <path d="M9.27,-1.73C9.27,-6.846 5.116,-11 0,-11C-5.116,-11 -9.27,-6.846 -9.27,-1.73L-9.27,1.73C-9.27,6.846 -5.116,11 0,11C5.116,11 9.27,6.846 9.27,1.73L9.27,-1.73Z" style="fill:white;"/>
                </g>
                <path d="M0,534.46L0,424.95C1.667,420.297 4.753,418.313 9.26,419C16.71,420.13 15.89,427.56 16.02,433.39C16.027,433.903 16.203,433.97 16.55,433.59C21.543,428.037 26.957,423.873 32.79,421.1C38.39,418.447 44.86,417.127 52.2,417.14C68.293,417.187 81.023,424.343 90.39,438.61C90.597,438.923 90.81,438.927 91.03,438.62C101.457,424.14 115.127,416.977 132.04,417.13C162.24,417.39 178.67,439.16 178.74,467.82C178.787,488.033 178.787,508.253 178.74,528.48C178.733,532.133 178.39,534.723 177.71,536.25C174.48,543.53 162.53,540.97 162.52,533.19C162.493,510.623 162.487,488.06 162.5,465.5C162.52,442.78 143.83,426.75 121.26,433.78C104.55,438.98 97.29,454.37 97.27,470.89C97.243,490.75 97.237,510.607 97.25,530.46C97.25,533.407 96.813,535.637 95.94,537.15C93.17,541.96 84.51,541.81 82,536.33C81.507,535.237 81.26,533.6 81.26,531.42C81.26,510.2 81.253,488.98 81.24,467.76C81.24,454.59 76.29,440.74 63.47,435.12C42.7,426.02 22.66,439.51 17.29,460.06C16.457,463.267 16.033,467.973 16.02,474.18C15.987,493.533 15.957,512.887 15.93,532.24C15.92,542.27 3.1,543.78 0,534.46Z" style="fill:white;fill-rule:nonzero;"/>
                <path d="M260.855,542.238C227.257,538.47 202.771,507.178 206.614,472.92C206.614,472.92 206.614,472.92 206.614,472.92C210.457,438.662 241.266,413.573 274.865,417.342C308.463,421.11 332.949,452.402 329.106,486.66C329.106,486.66 329.106,486.66 329.106,486.66C325.263,520.918 294.454,546.007 260.855,542.238ZM270.507,527.136C295.002,525.767 313.962,503.267 312.51,477.294C312.51,477.294 312.51,477.294 312.51,477.294C311.058,451.32 289.707,431.074 265.213,432.444C265.213,432.444 265.213,432.444 265.213,432.444C240.718,433.813 221.758,456.313 223.21,482.286C223.21,482.286 223.21,482.286 223.21,482.286C224.662,508.26 246.013,528.506 270.507,527.136C270.507,527.136 270.507,527.136 270.507,527.136Z" style="fill:white;fill-rule:nonzero;"/>
                <path d="M774.28,434.68C785.5,420.62 802.59,415.39 820.09,417.58C846.15,420.84 860.95,440.67 860.98,466.49C861.007,488.91 861.01,511.33 860.99,533.75C860.99,542.59 845.02,544.24 845.01,530.71C844.997,509.47 844.993,488.233 845,467C845.01,451.22 836.51,437.27 820.58,433.38C795.61,427.29 773.84,445.23 773.58,470.57C773.46,482.617 773.437,502.873 773.51,531.34C773.54,544.26 757.5,543.59 757.5,531C757.493,496.333 757.497,461.667 757.51,427C757.51,419.29 767.7,415.83 772.12,422.24C774.21,425.28 773.57,430.59 773.44,434.36C773.439,434.37 773.439,434.381 773.439,434.392C773.439,434.649 773.651,434.862 773.909,434.862C774.054,434.862 774.191,434.794 774.28,434.68Z" style="fill:white;fill-rule:nonzero;"/>
                <path d="M1000,473.07L1000,480.78C998.43,485.31 995.42,486.74 990.56,486.74C962.293,486.753 934.01,486.757 905.71,486.75C905.197,486.75 904.97,487.003 905.03,487.51C909.09,523.04 947.72,539 976.05,517.54C978.03,516.04 980.157,514.267 982.43,512.22C990.17,505.23 1000.33,515.01 993.7,522.22C970.65,547.27 930.77,550.03 906.07,525.93C868.03,488.82 892.51,410.66 951.48,417.51C980.85,420.91 997.42,445.1 1000,473.07ZM982.84,471.37C976.66,417.84 911.98,420.83 905,471.14C904.92,471.713 905.17,472 905.75,472L982.28,472C982.7,472 982.887,471.79 982.84,471.37Z" style="fill:white;fill-rule:nonzero;"/>
                <path d="M592.6,525.09C592.602,525.073 592.603,525.056 592.603,525.039C592.603,524.83 592.432,524.659 592.223,524.659C592.104,524.659 591.992,524.715 591.92,524.81C579.46,540.13 560.23,545.27 541.29,541.08C517.3,535.76 505.06,516.89 505.02,492.95C504.987,471.577 504.983,450.203 505.01,428.83C505.017,425.757 505.48,423.507 506.4,422.08C509.28,417.62 517.33,418 519.94,422.82C520.64,424.12 520.99,426.183 520.99,429.01C520.983,450.65 521,472.293 521.04,493.94C521.047,498.367 522.263,503.487 524.69,509.3C530.4,522.95 545.25,528.54 559.15,527.1C574.77,525.48 587.32,514.55 591.08,499.3C591.973,495.66 592.437,489.03 592.47,479.41C592.523,462.51 592.53,445.597 592.49,428.67C592.483,425.683 592.933,423.49 593.84,422.09C596.79,417.54 605.08,418.05 607.52,423.09C608.16,424.41 608.48,426.607 608.48,429.68C608.507,462.847 608.51,496.017 608.49,529.19C608.49,532.71 608.027,535.28 607.1,536.9C603.2,543.75 592.33,540.74 592.45,532.46C592.49,529.71 592.38,527.45 592.6,525.09Z" style="fill:white;fill-rule:nonzero;"/>
                <path d="M719.01,426.97C719.01,422.555 715.425,418.97 711.01,418.97C706.595,418.97 703.01,422.555 703.01,426.97L703.01,532.69C703.01,537.105 706.595,540.69 711.01,540.69C715.425,540.69 719.01,537.105 719.01,532.69L719.01,426.97Z" style="fill:white;"/>
            </g>
            <g id="nuboj_white.svg" transform="matrix(0.0507448,0,0,0.0507448,126.906,24)">
                <g transform="matrix(1,0,0,1,-688.5,-245.5)">
                    <clipPath id="_clip1">
                        <rect x="0" y="0" width="1377" height="491"/>
                    </clipPath>
                    <g clip-path="url(#_clip1)">
                        <g transform="matrix(1,0,0,1,0.00063644,0)">
                            <g transform="matrix(8.33333,0,0,8.33333,75.566,8.302)">
                                <g>
                                    <path d="M0,18.135C5.008,18.135 9.068,14.075 9.068,9.067C9.068,4.059 5.008,0 0,0C-5.008,0 -9.068,4.059 -9.068,9.067C-9.068,14.075 -5.008,18.135 0,18.135" style="fill:rgb(163,207,98);fill-rule:nonzero;"/>
                                </g>
                            </g>
                            <g transform="matrix(8.33333,0,0,8.33333,658.757,332.64)">
                                <g>
                                    <path d="M0,12.266C3.387,12.266 6.133,9.52 6.133,6.133C6.133,2.746 3.387,0 0,0C-3.387,0 -6.133,2.746 -6.133,6.133C-6.133,9.52 -3.387,12.266 0,12.266" style="fill:rgb(163,207,98);fill-rule:nonzero;"/>
                                </g>
                            </g>
                            <g transform="matrix(8.33333,0,0,8.33333,1339.31,0)">
                                <g>
                                    <path d="M0,8.893C2.456,8.893 4.447,6.902 4.447,4.446C4.447,1.991 2.456,0 0,0C-2.456,0 -4.447,1.991 -4.447,4.446C-4.447,6.902 -2.456,8.893 0,8.893" style="fill:rgb(163,207,98);fill-rule:nonzero;"/>
                                </g>
                            </g>
                            <g transform="matrix(8.33333,0,0,8.33333,68.033,52.301)">
                                <g>
                                    <path d="M0,8.227L1.808,8.227L1.808,1.519L4.274,1.519L4.274,0L-2.466,0L-2.466,1.519L0,1.519L0,8.227Z" style="fill:white;fill-rule:nonzero;"/>
                                </g>
                            </g>
                            <g transform="matrix(8.33333,0,0,8.33333,921.977,269.609)">
                                <g>
                                    <path d="M0,-14.382C-1.261,-15.786 -2.778,-16.891 -4.554,-17.696C-6.33,-18.502 -8.271,-18.905 -10.378,-18.905C-11.783,-18.905 -13.022,-18.759 -14.096,-18.471C-15.17,-18.182 -16.12,-17.81 -16.946,-17.356C-17.772,-16.901 -18.474,-16.416 -19.052,-15.9C-19.631,-15.383 -20.106,-14.878 -20.478,-14.382L-20.663,-14.382L-20.663,-26.705L-28.093,-26.705C-28.095,-26.7 -28.096,-26.696 -28.098,-26.691L-28.098,2.38C-22.995,3.343 -20.547,9.044 -16.574,11.083C-14.798,11.995 -12.794,12.323 -10.688,12.323C-8.417,12.323 -6.372,11.92 -4.554,11.114C-2.737,10.309 -1.188,9.204 0.093,7.8C1.373,6.396 2.344,4.743 3.005,2.843C3.665,0.944 3.996,-1.101 3.996,-3.291C3.996,-5.48 3.645,-7.525 2.943,-9.425C2.24,-11.324 1.26,-12.977 0,-14.382M-4.027,0.055C-4.42,1.129 -4.998,2.079 -5.762,2.905C-6.527,3.732 -7.446,4.392 -8.519,4.888C-9.594,5.383 -10.812,5.631 -12.175,5.631C-13.538,5.631 -14.757,5.383 -15.83,4.888C-16.905,4.392 -17.824,3.732 -18.587,2.905C-19.352,2.079 -19.93,1.129 -20.322,0.055C-20.715,-1.019 -20.911,-2.134 -20.911,-3.291C-20.911,-4.447 -20.715,-5.562 -20.322,-6.637C-19.93,-7.71 -19.352,-8.66 -18.587,-9.487C-17.824,-10.313 -16.905,-10.974 -15.83,-11.47C-14.757,-11.965 -13.538,-12.213 -12.175,-12.213C-10.812,-12.213 -9.594,-11.965 -8.519,-11.47C-7.446,-10.974 -6.527,-10.313 -5.762,-9.487C-4.998,-8.66 -4.42,-7.71 -4.027,-6.637C-3.635,-5.562 -3.439,-4.447 -3.439,-3.291C-3.439,-2.134 -3.635,-1.019 -4.027,0.055" style="fill:white;fill-rule:nonzero;"/>
                                </g>
                            </g>
                            <g transform="matrix(8.33333,0,0,8.33333,565.983,245.191)">
                                <g>
                                    <path d="M0,1.002C0,1.993 -0.124,2.944 -0.372,3.853C-0.62,4.762 -1.023,5.567 -1.58,6.269C-2.138,6.971 -2.84,7.529 -3.687,7.941C-4.534,8.355 -5.577,8.561 -6.816,8.561C-8.138,8.561 -9.161,8.262 -9.883,7.663C-10.606,7.064 -11.143,6.321 -11.494,5.432C-11.845,4.545 -12.062,3.595 -12.144,2.582C-12.228,1.57 -12.268,0.652 -12.268,-0.175L-12.268,-10.272C-14.98,-10.992 -17.491,-12.204 -19.703,-13.803L-19.703,3.542C-19.703,5.071 -19.518,6.538 -19.146,7.941C-18.774,9.346 -18.154,10.596 -17.287,11.69C-16.419,12.785 -15.295,13.652 -13.91,14.293C-12.526,14.932 -10.843,15.253 -8.86,15.253C-6.382,15.253 -4.465,14.644 -2.974,13.611C0.326,11.323 2.01,6.464 7.435,5.276L7.435,-14.251C5.241,-12.552 2.728,-11.248 0,-10.442L0,1.002Z" style="fill:white;fill-rule:nonzero;"/>
                                </g>
                            </g>
                            <g transform="matrix(8.33333,0,0,8.33333,321.764,336.149)">
                                <g>
                                    <path d="M0,-23.296C-0.867,-24.369 -1.994,-25.237 -3.377,-25.898C-4.761,-26.558 -6.444,-26.89 -8.426,-26.89C-10.905,-26.89 -12.812,-26.264 -14.313,-25.248C-17.848,-22.854 -18.077,-18.492 -24.722,-15.062L-24.722,3.594L-17.286,3.594L-17.286,-12.639C-17.286,-13.63 -17.163,-14.58 -16.915,-15.489C-16.667,-16.397 -16.264,-17.203 -15.707,-17.905C-15.149,-18.607 -14.447,-19.165 -13.6,-19.578C-12.754,-19.991 -11.711,-20.198 -10.471,-20.198C-9.191,-20.198 -8.179,-19.898 -7.435,-19.299C-6.691,-18.7 -6.145,-17.957 -5.793,-17.069C-5.443,-16.18 -5.226,-15.231 -5.143,-14.219C-5.06,-13.206 -5.019,-12.288 -5.019,-11.462L-5.019,3.594L2.416,3.594L2.416,-15.179C2.416,-16.707 2.231,-18.174 1.859,-19.578C1.487,-20.982 0.867,-22.221 0,-23.296" style="fill:white;fill-rule:nonzero;"/>
                                </g>
                            </g>
                            <g transform="matrix(8.33333,0,0,8.33333,1308.44,490.023)">
                                <g>
                                    <path d="M0,-44.611L0,-13.012C0,-12.31 -0.021,-11.587 -0.062,-10.843C-0.104,-10.1 -0.238,-9.418 -0.464,-8.799C-0.692,-8.179 -1.064,-7.674 -1.58,-7.281C-2.097,-6.889 -2.809,-6.692 -3.718,-6.692C-4.131,-6.692 -4.523,-6.723 -4.895,-6.785C-5.267,-6.847 -5.658,-6.92 -6.072,-7.002L-6.629,-0.558C-5.968,-0.352 -5.307,-0.208 -4.647,-0.125C-3.986,-0.042 -3.305,0 -2.602,0C-0.496,0 1.218,-0.332 2.54,-0.992C3.862,-1.653 4.884,-2.572 5.607,-3.749C6.33,-4.926 6.816,-6.311 7.063,-7.9C7.311,-9.491 7.435,-11.215 7.435,-13.074L7.435,-44.611L0,-44.611Z" style="fill:white;fill-rule:nonzero;"/>
                                </g>
                            </g>
                            <g transform="matrix(8.33333,0,0,8.33333,1249.33,295.627)">
                                <g>
                                    <path d="M0,-12.826C-0.847,-14.747 -1.993,-16.389 -3.439,-17.752C-4.885,-19.115 -6.599,-20.168 -8.581,-20.911C-10.564,-21.655 -12.671,-22.027 -14.901,-22.027C-17.132,-22.027 -19.238,-21.655 -21.221,-20.911C-23.204,-20.168 -24.918,-19.115 -26.364,-17.752C-27.81,-16.389 -28.956,-14.747 -29.802,-12.826C-30.649,-10.905 -31.073,-8.768 -31.073,-6.413C-31.073,-4.059 -30.649,-1.921 -29.802,-0.001C-28.956,1.92 -27.81,3.562 -26.364,4.925C-24.918,6.288 -23.204,7.342 -21.221,8.085C-19.238,8.829 -17.132,9.201 -14.901,9.201C-12.671,9.201 -10.564,8.829 -8.581,8.085C-6.599,7.342 -4.885,6.288 -3.439,4.925C-1.993,3.562 -0.847,1.92 0,-0.001C0.846,-1.921 1.27,-4.059 1.27,-6.413C1.27,-8.768 0.846,-10.905 0,-12.826M-6.754,-3.067C-7.147,-1.993 -7.725,-1.043 -8.489,-0.217C-9.253,0.609 -10.172,1.27 -11.246,1.765C-12.32,2.261 -13.538,2.509 -14.901,2.509C-16.264,2.509 -17.483,2.261 -18.557,1.765C-19.631,1.27 -20.55,0.609 -21.314,-0.217C-22.079,-1.043 -22.657,-1.993 -23.049,-3.067C-23.442,-4.141 -23.637,-5.257 -23.637,-6.413C-23.637,-7.569 -23.442,-8.685 -23.049,-9.759C-22.657,-10.833 -22.079,-11.782 -21.314,-12.609C-20.55,-13.435 -19.631,-14.096 -18.557,-14.592C-17.483,-15.088 -16.264,-15.335 -14.901,-15.335C-13.538,-15.335 -12.32,-15.088 -11.246,-14.592C-10.172,-14.096 -9.253,-13.435 -8.489,-12.609C-7.725,-11.782 -7.147,-10.833 -6.754,-9.759C-6.361,-8.685 -6.165,-7.569 -6.165,-6.413C-6.165,-5.257 -6.361,-4.141 -6.754,-3.067" style="fill:white;fill-rule:nonzero;"/>
                                </g>
                            </g>
                        </g>
                    </g>
                </g>
            </g>
        </g>
    </g>
</svg>
