<?xml version="1.0" encoding="UTF-8" standalone="no"?>
<!DOCTYPE svg PUBLIC "-//W3C//DTD SVG 1.1//EN" "http://www.w3.org/Graphics/SVG/1.1/DTD/svg11.dtd">
<svg width="100%" height="100%" viewBox="0 0 288 52" version="1.1" xmlns="http://www.w3.org/2000/svg" xmlns:xlink="http://www.w3.org/1999/xlink" xml:space="preserve" xmlns:serif="http://www.serif.com/" style="fill-rule:evenodd;clip-rule:evenodd;stroke-linejoin:round;stroke-miterlimit:2;">
    <g transform="matrix(1,0,0,1,0,-71.6361)">
        <g id="Artboard2" transform="matrix(3.16414,0,0,1.29171,-35.7503,-20.5243)">
            <rect x="11.299" y="71.348" width="91.02" height="40.257" style="fill:none;"/>
            <g transform="matrix(1,0,0,1,19.2371,1.54834)">
                <g transform="matrix(0.0243232,0,0,0.0595817,9.53479,73.7629)">
                    <path d="M483.08,0L500.06,0C578.86,5.81 638.38,66.89 640.91,146.04C641.01,149.167 640.603,151.51 639.69,153.07C636.35,158.81 626.39,156.69 626.35,149.93C625.84,62.67 546.5,-1.52 460.75,18C437.777,23.227 417.457,34.103 399.79,50.63C342.62,104.1 342.41,194.41 399.94,247.95C424.88,271.16 456.88,283.58 491.13,284.06C501.57,284.21 501.76,298.7 489.79,298.54C405.86,297.42 339.81,228.16 342.27,144.49C344.55,66.79 405.97,4.99 483.08,0Z" style="fill-rule:nonzero;"/>
                    <path d="M584.55,149.97C583.91,201.31 543.75,241 492.64,242.3C486.62,242.45 482.65,235.69 487.34,231.77C488.373,230.903 490.133,230.403 492.62,230.27C538.01,227.83 571.37,194.73 572.57,149.48C572.81,140.78 584.66,141.09 584.55,149.97Z" style="fill-rule:nonzero;"/>
                    <path d="M453.54,519.99C435.11,544.65 401.61,549.57 376.55,531.95C355.58,517.21 347.24,490.46 352.39,465.68C362.44,417.19 420.85,399.26 453.66,438.68C453.726,438.761 453.826,438.807 453.93,438.807C454.121,438.807 454.279,438.651 454.28,438.46C454.24,418.047 454.23,397.56 454.25,377C454.26,369 465.09,366.53 468.94,373.09C469.82,374.59 470.26,376.78 470.26,379.66C470.247,430.94 470.243,482.22 470.25,533.5C470.25,541.15 459.08,543.12 455.42,536.75C453.27,533.01 454.29,524.72 454.23,520.21C454.23,520.21 454.23,520.21 454.23,520.21C454.23,520.001 454.058,519.83 453.85,519.83C453.727,519.83 453.611,519.89 453.54,519.99ZM376.08,508.25C386.58,523.59 404.27,530.06 422.06,525.18C442.21,519.65 455.15,499.63 454.89,479.69C454.61,458.77 442.42,440.1 421.66,434.26C405.9,429.82 388.14,435.13 378.15,447.6C365.32,463.62 364.44,491.26 376.08,508.25Z" style="fill-rule:nonzero;"/>
                    <path d="M662.99,377.3C662.99,372.89 659.41,369.31 655,369.31C650.59,369.31 647.01,372.89 647.01,377.3L647.01,532.7C647.01,537.11 650.59,540.69 655,540.69C659.41,540.69 662.99,537.11 662.99,532.7L662.99,377.3Z"/>
                    <g transform="matrix(0.999925,-0.012217,0.012217,0.999925,711.09,384.83)">
                        <path d="M9.27,-1.73C9.27,-6.846 5.116,-11 0,-11C-5.116,-11 -9.27,-6.846 -9.27,-1.73L-9.27,1.73C-9.27,6.846 -5.116,11 0,11C5.116,11 9.27,6.846 9.27,1.73L9.27,-1.73Z"/>
                    </g>
                    <path d="M0,534.46L0,424.95C1.667,420.297 4.753,418.313 9.26,419C16.71,420.13 15.89,427.56 16.02,433.39C16.027,433.903 16.203,433.97 16.55,433.59C21.543,428.037 26.957,423.873 32.79,421.1C38.39,418.447 44.86,417.127 52.2,417.14C68.293,417.187 81.023,424.343 90.39,438.61C90.597,438.923 90.81,438.927 91.03,438.62C101.457,424.14 115.127,416.977 132.04,417.13C162.24,417.39 178.67,439.16 178.74,467.82C178.787,488.033 178.787,508.253 178.74,528.48C178.733,532.133 178.39,534.723 177.71,536.25C174.48,543.53 162.53,540.97 162.52,533.19C162.493,510.623 162.487,488.06 162.5,465.5C162.52,442.78 143.83,426.75 121.26,433.78C104.55,438.98 97.29,454.37 97.27,470.89C97.243,490.75 97.237,510.607 97.25,530.46C97.25,533.407 96.813,535.637 95.94,537.15C93.17,541.96 84.51,541.81 82,536.33C81.507,535.237 81.26,533.6 81.26,531.42C81.26,510.2 81.253,488.98 81.24,467.76C81.24,454.59 76.29,440.74 63.47,435.12C42.7,426.02 22.66,439.51 17.29,460.06C16.457,463.267 16.033,467.973 16.02,474.18C15.987,493.533 15.957,512.887 15.93,532.24C15.92,542.27 3.1,543.78 0,534.46Z" style="fill-rule:nonzero;"/>
                    <path d="M260.855,542.238C227.257,538.47 202.771,507.178 206.614,472.92C206.614,472.92 206.614,472.92 206.614,472.92C210.457,438.662 241.266,413.573 274.865,417.342C308.463,421.11 332.949,452.402 329.106,486.66C329.106,486.66 329.106,486.66 329.106,486.66C325.263,520.918 294.454,546.007 260.855,542.238ZM270.507,527.136C295.002,525.767 313.962,503.267 312.51,477.294C312.51,477.294 312.51,477.294 312.51,477.294C311.058,451.32 289.707,431.074 265.213,432.444C265.213,432.444 265.213,432.444 265.213,432.444C240.718,433.813 221.758,456.313 223.21,482.286C223.21,482.286 223.21,482.286 223.21,482.286C224.662,508.26 246.013,528.506 270.507,527.136C270.507,527.136 270.507,527.136 270.507,527.136Z" style="fill-rule:nonzero;"/>
                    <path d="M774.28,434.68C785.5,420.62 802.59,415.39 820.09,417.58C846.15,420.84 860.95,440.67 860.98,466.49C861.007,488.91 861.01,511.33 860.99,533.75C860.99,542.59 845.02,544.24 845.01,530.71C844.997,509.47 844.993,488.233 845,467C845.01,451.22 836.51,437.27 820.58,433.38C795.61,427.29 773.84,445.23 773.58,470.57C773.46,482.617 773.437,502.873 773.51,531.34C773.54,544.26 757.5,543.59 757.5,531C757.493,496.333 757.497,461.667 757.51,427C757.51,419.29 767.7,415.83 772.12,422.24C774.21,425.28 773.57,430.59 773.44,434.36C773.439,434.37 773.439,434.381 773.439,434.392C773.439,434.649 773.651,434.862 773.909,434.862C774.054,434.862 774.191,434.794 774.28,434.68Z" style="fill-rule:nonzero;"/>
                    <path d="M1000,473.07L1000,480.78C998.43,485.31 995.42,486.74 990.56,486.74C962.293,486.753 934.01,486.757 905.71,486.75C905.197,486.75 904.97,487.003 905.03,487.51C909.09,523.04 947.72,539 976.05,517.54C978.03,516.04 980.157,514.267 982.43,512.22C990.17,505.23 1000.33,515.01 993.7,522.22C970.65,547.27 930.77,550.03 906.07,525.93C868.03,488.82 892.51,410.66 951.48,417.51C980.85,420.91 997.42,445.1 1000,473.07ZM982.84,471.37C976.66,417.84 911.98,420.83 905,471.14C904.92,471.713 905.17,472 905.75,472L982.28,472C982.7,472 982.887,471.79 982.84,471.37Z" style="fill-rule:nonzero;"/>
                    <path d="M592.6,525.09C592.602,525.073 592.603,525.056 592.603,525.039C592.603,524.83 592.432,524.659 592.223,524.659C592.104,524.659 591.992,524.715 591.92,524.81C579.46,540.13 560.23,545.27 541.29,541.08C517.3,535.76 505.06,516.89 505.02,492.95C504.987,471.577 504.983,450.203 505.01,428.83C505.017,425.757 505.48,423.507 506.4,422.08C509.28,417.62 517.33,418 519.94,422.82C520.64,424.12 520.99,426.183 520.99,429.01C520.983,450.65 521,472.293 521.04,493.94C521.047,498.367 522.263,503.487 524.69,509.3C530.4,522.95 545.25,528.54 559.15,527.1C574.77,525.48 587.32,514.55 591.08,499.3C591.973,495.66 592.437,489.03 592.47,479.41C592.523,462.51 592.53,445.597 592.49,428.67C592.483,425.683 592.933,423.49 593.84,422.09C596.79,417.54 605.08,418.05 607.52,423.09C608.16,424.41 608.48,426.607 608.48,429.68C608.507,462.847 608.51,496.017 608.49,529.19C608.49,532.71 608.027,535.28 607.1,536.9C603.2,543.75 592.33,540.74 592.45,532.46C592.49,529.71 592.38,527.45 592.6,525.09Z" style="fill-rule:nonzero;"/>
                    <path d="M719.01,426.97C719.01,422.555 715.425,418.97 711.01,418.97C706.595,418.97 703.01,422.555 703.01,426.97L703.01,532.69C703.01,537.105 706.595,540.69 711.01,540.69C715.425,540.69 719.01,537.105 719.01,532.69L719.01,426.97Z"/>
                </g>
                <g id="nuboj_dark.svg" transform="matrix(0.0205979,0,0,0.0504561,56.5341,89.9278)">
                    <g transform="matrix(1,0,0,1,-688.5,-287)">
                        <clipPath id="_clip1">
                            <rect x="0" y="0" width="1377" height="574"/>
                        </clipPath>
                        <g clip-path="url(#_clip1)">
                            <g transform="matrix(1,0,0,1,-380.613,-486.266)">
                                <g transform="matrix(8.33333,0,0,8.33333,611.917,1041.83)">
                                    <path d="M0,-3.421C-0.157,-4.788 -1.251,-5.55 -2.551,-5.55C-4.382,-5.55 -5.459,-4.183 -5.459,-2.427C-5.459,-0.721 -4.382,0.646 -2.551,0.646C-1.102,0.646 -0.083,-0.298 0.05,-1.773L-1.209,-1.773C-1.309,-0.994 -1.756,-0.447 -2.551,-0.447C-3.719,-0.447 -4.158,-1.441 -4.158,-2.427C-4.158,-3.463 -3.719,-4.456 -2.551,-4.456C-1.905,-4.456 -1.342,-4.009 -1.259,-3.421L0,-3.421ZM0.762,-1.632C0.762,-0.273 1.632,0.621 2.974,0.621C4.324,0.621 5.194,-0.273 5.194,-1.632C5.194,-2.999 4.324,-3.893 2.974,-3.893C1.632,-3.893 0.762,-2.999 0.762,-1.632M1.938,-1.632C1.938,-2.319 2.179,-3.007 2.974,-3.007C3.777,-3.007 4.018,-2.319 4.018,-1.632C4.018,-0.952 3.777,-0.265 2.974,-0.265C2.179,-0.265 1.938,-0.952 1.938,-1.632M6.039,0.506L7.215,0.506L7.215,-1.739C7.215,-2.609 7.488,-2.965 8.126,-2.965C8.673,-2.965 8.88,-2.618 8.88,-1.913L8.88,0.506L10.056,0.506L10.056,-2.129C10.056,-3.189 9.742,-3.893 8.491,-3.893C7.994,-3.893 7.48,-3.661 7.182,-3.181L7.157,-3.181L7.157,-3.777L6.039,-3.777L6.039,0.506ZM11.034,0.506L12.21,0.506L12.21,-1.739C12.21,-2.609 12.483,-2.965 13.121,-2.965C13.668,-2.965 13.875,-2.618 13.875,-1.913L13.875,0.506L15.051,0.506L15.051,-2.129C15.051,-3.189 14.737,-3.893 13.486,-3.893C12.989,-3.893 12.475,-3.661 12.177,-3.181L12.152,-3.181L12.152,-3.777L11.034,-3.777L11.034,0.506ZM20.088,-1.35C20.171,-2.667 19.467,-3.893 18.009,-3.893C16.708,-3.893 15.822,-2.916 15.822,-1.632C15.822,-0.306 16.658,0.621 18.009,0.621C18.978,0.621 19.682,0.191 20.013,-0.82L18.978,-0.82C18.903,-0.555 18.522,-0.265 18.05,-0.265C17.396,-0.265 17.031,-0.605 16.998,-1.35L20.088,-1.35ZM16.998,-2.096C17.015,-2.427 17.23,-3.007 17.976,-3.007C18.547,-3.007 18.804,-2.692 18.912,-2.096L16.998,-2.096ZM24.934,-2.27C24.859,-3.363 23.932,-3.893 22.921,-3.893C21.529,-3.893 20.734,-2.907 20.734,-1.574C20.734,-0.29 21.604,0.621 22.896,0.621C24.023,0.621 24.81,0 24.959,-1.135L23.824,-1.135C23.749,-0.613 23.434,-0.265 22.888,-0.265C22.151,-0.265 21.91,-1.002 21.91,-1.615C21.91,-2.245 22.159,-3.007 22.913,-3.007C23.401,-3.007 23.708,-2.75 23.782,-2.27L24.934,-2.27ZM27.195,-5.061L26.019,-5.061L26.019,-3.777L25.307,-3.777L25.307,-2.99L26.019,-2.99L26.019,-0.464C26.019,0.39 26.649,0.555 27.369,0.555C27.601,0.555 27.858,0.547 28.057,0.514L28.057,-0.406C27.933,-0.381 27.817,-0.373 27.692,-0.373C27.295,-0.373 27.195,-0.472 27.195,-0.869L27.195,-2.99L28.057,-2.99L28.057,-3.777L27.195,-3.777L27.195,-5.061ZM28.736,0.506L29.912,0.506L29.912,-3.777L28.736,-3.777L28.736,0.506ZM29.912,-5.409L28.736,-5.409L28.736,-4.44L29.912,-4.44L29.912,-5.409ZM30.923,0.506L32.099,0.506L32.099,-1.739C32.099,-2.609 32.373,-2.965 33.01,-2.965C33.557,-2.965 33.764,-2.618 33.764,-1.913L33.764,0.506L34.94,0.506L34.94,-2.129C34.94,-3.189 34.626,-3.893 33.375,-3.893C32.878,-3.893 32.364,-3.661 32.066,-3.181L32.041,-3.181L32.041,-3.777L30.923,-3.777L30.923,0.506ZM40.035,-3.777L38.917,-3.777L38.917,-3.206L38.9,-3.206C38.618,-3.703 38.188,-3.893 37.624,-3.893C36.423,-3.893 35.785,-2.883 35.785,-1.773C35.785,-0.596 36.332,0.381 37.616,0.381C38.13,0.381 38.643,0.166 38.9,-0.281L38.917,-0.281L38.917,0.282C38.925,0.895 38.627,1.342 37.972,1.342C37.558,1.342 37.202,1.193 37.094,0.754L35.926,0.754C35.984,1.732 36.97,2.129 37.815,2.129C39.786,2.129 40.035,0.936 40.035,0.232L40.035,-3.777ZM37.914,-0.505C37.194,-0.505 36.962,-1.176 36.962,-1.789C36.962,-2.427 37.252,-3.007 37.914,-3.007C38.676,-3.007 38.917,-2.386 38.917,-1.69C38.917,-1.077 38.585,-0.505 37.914,-0.505M44.881,0.506L46.181,0.506L46.181,-4.316L47.954,-4.316L47.954,-5.409L43.108,-5.409L43.108,-4.316L44.881,-4.316L44.881,0.506ZM48.592,0.506L49.768,0.506L49.768,-1.739C49.768,-2.609 50.042,-2.965 50.68,-2.965C51.226,-2.965 51.433,-2.618 51.433,-1.913L51.433,0.506L52.61,0.506L52.61,-2.129C52.61,-3.189 52.295,-3.893 51.044,-3.893C50.605,-3.893 50.091,-3.661 49.793,-3.181L49.768,-3.181L49.768,-5.409L48.592,-5.409L48.592,0.506ZM53.62,0.506L54.796,0.506L54.796,-3.777L53.62,-3.777L53.62,0.506ZM54.796,-5.409L53.62,-5.409L53.62,-4.44L54.796,-4.44L54.796,-5.409ZM55.807,0.506L56.983,0.506L56.983,-1.739C56.983,-2.609 57.257,-2.965 57.895,-2.965C58.441,-2.965 58.648,-2.618 58.648,-1.913L58.648,0.506L59.825,0.506L59.825,-2.129C59.825,-3.189 59.51,-3.893 58.259,-3.893C57.762,-3.893 57.248,-3.661 56.95,-3.181L56.925,-3.181L56.925,-3.777L55.807,-3.777L55.807,0.506ZM64.919,-3.777L63.801,-3.777L63.801,-3.206L63.784,-3.206C63.503,-3.703 63.072,-3.893 62.509,-3.893C61.307,-3.893 60.67,-2.883 60.67,-1.773C60.67,-0.596 61.216,0.381 62.5,0.381C63.014,0.381 63.527,0.166 63.784,-0.281L63.801,-0.281L63.801,0.282C63.809,0.895 63.511,1.342 62.856,1.342C62.442,1.342 62.086,1.193 61.978,0.754L60.81,0.754C60.868,1.732 61.854,2.129 62.699,2.129C64.671,2.129 64.919,0.936 64.919,0.232L64.919,-3.777ZM62.798,-0.505C62.078,-0.505 61.846,-1.176 61.846,-1.789C61.846,-2.427 62.136,-3.007 62.798,-3.007C63.561,-3.007 63.801,-2.386 63.801,-1.69C63.801,-1.077 63.469,-0.505 62.798,-0.505M65.739,-0.886C65.789,0.249 66.758,0.621 67.752,0.621C68.73,0.621 69.707,0.257 69.707,-0.869C69.707,-1.665 69.036,-1.913 68.349,-2.071C67.678,-2.228 67.015,-2.286 67.015,-2.709C67.015,-3.056 67.404,-3.106 67.669,-3.106C68.092,-3.106 68.44,-2.982 68.473,-2.526L69.591,-2.526C69.5,-3.578 68.638,-3.893 67.702,-3.893C66.783,-3.893 65.839,-3.611 65.839,-2.518C65.839,-1.764 66.518,-1.524 67.197,-1.375C68.042,-1.193 68.531,-1.068 68.531,-0.712C68.531,-0.298 68.1,-0.165 67.76,-0.165C67.296,-0.165 66.866,-0.373 66.857,-0.886L65.739,-0.886ZM74.354,-5.061L73.178,-5.061L73.178,-3.777L72.465,-3.777L72.465,-2.99L73.178,-2.99L73.178,-0.464C73.178,0.39 73.807,0.555 74.528,0.555C74.76,0.555 75.017,0.547 75.216,0.514L75.216,-0.406C75.091,-0.381 74.975,-0.373 74.851,-0.373C74.454,-0.373 74.354,-0.472 74.354,-0.869L74.354,-2.99L75.216,-2.99L75.216,-3.777L74.354,-3.777L74.354,-5.061ZM75.729,-1.632C75.729,-0.273 76.599,0.621 77.941,0.621C79.291,0.621 80.161,-0.273 80.161,-1.632C80.161,-2.999 79.291,-3.893 77.941,-3.893C76.599,-3.893 75.729,-2.999 75.729,-1.632M76.906,-1.632C76.906,-2.319 77.146,-3.007 77.941,-3.007C78.745,-3.007 78.985,-2.319 78.985,-1.632C78.985,-0.952 78.745,-0.265 77.941,-0.265C77.146,-0.265 76.906,-0.952 76.906,-1.632M83.516,0.506L84.816,0.506L84.816,-1.806L86.117,-1.806C86.771,-1.806 87.012,-1.532 87.103,-0.911C87.169,-0.439 87.153,0.133 87.31,0.506L88.61,0.506C88.379,0.174 88.387,-0.522 88.362,-0.894C88.321,-1.491 88.138,-2.112 87.5,-2.278L87.5,-2.295C88.155,-2.559 88.437,-3.081 88.437,-3.777C88.437,-4.672 87.766,-5.409 86.705,-5.409L83.516,-5.409L83.516,0.506ZM84.816,-4.399L86.241,-4.399C86.821,-4.399 87.136,-4.15 87.136,-3.578C87.136,-2.982 86.821,-2.734 86.241,-2.734L84.816,-2.734L84.816,-4.399ZM93.514,-1.35C93.597,-2.667 92.893,-3.893 91.435,-3.893C90.135,-3.893 89.248,-2.916 89.248,-1.632C89.248,-0.306 90.085,0.621 91.435,0.621C92.404,0.621 93.108,0.191 93.44,-0.82L92.404,-0.82C92.33,-0.555 91.949,-0.265 91.477,-0.265C90.822,-0.265 90.458,-0.605 90.424,-1.35L93.514,-1.35ZM90.424,-2.096C90.441,-2.427 90.656,-3.007 91.402,-3.007C91.974,-3.007 92.23,-2.692 92.338,-2.096L90.424,-2.096ZM94.086,-0.886C94.136,0.249 95.105,0.621 96.099,0.621C97.076,0.621 98.054,0.257 98.054,-0.869C98.054,-1.665 97.383,-1.913 96.695,-2.071C96.024,-2.228 95.362,-2.286 95.362,-2.709C95.362,-3.056 95.751,-3.106 96.016,-3.106C96.438,-3.106 96.786,-2.982 96.82,-2.526L97.938,-2.526C97.847,-3.578 96.985,-3.893 96.049,-3.893C95.13,-3.893 94.185,-3.611 94.185,-2.518C94.185,-1.764 94.865,-1.524 95.544,-1.375C96.389,-1.193 96.878,-1.068 96.878,-0.712C96.878,-0.298 96.447,-0.165 96.107,-0.165C95.643,-0.165 95.212,-0.373 95.204,-0.886L94.086,-0.886ZM102.842,-3.777L101.665,-3.777L101.665,-1.532C101.665,-0.662 101.392,-0.306 100.754,-0.306C100.207,-0.306 100,-0.654 100,-1.358L100,-3.777L98.824,-3.777L98.824,-1.143C98.824,-0.083 99.139,0.621 100.39,0.621C100.887,0.621 101.4,0.39 101.699,-0.091L101.723,-0.091L101.723,0.506L102.842,0.506L102.842,-3.777ZM103.852,0.506L105.028,0.506L105.028,-5.409L103.852,-5.409L103.852,0.506ZM107.53,-5.061L106.354,-5.061L106.354,-3.777L105.642,-3.777L105.642,-2.99L106.354,-2.99L106.354,-0.464C106.354,0.39 106.983,0.555 107.704,0.555C107.936,0.555 108.193,0.547 108.392,0.514L108.392,-0.406C108.267,-0.381 108.151,-0.373 108.027,-0.373C107.63,-0.373 107.53,-0.472 107.53,-0.869L107.53,-2.99L108.392,-2.99L108.392,-3.777L107.53,-3.777L107.53,-5.061ZM108.831,-0.886C108.88,0.249 109.85,0.621 110.844,0.621C111.821,0.621 112.799,0.257 112.799,-0.869C112.799,-1.665 112.128,-1.913 111.44,-2.071C110.769,-2.228 110.106,-2.286 110.106,-2.709C110.106,-3.056 110.496,-3.106 110.761,-3.106C111.183,-3.106 111.531,-2.982 111.564,-2.526L112.683,-2.526C112.592,-3.578 111.73,-3.893 110.794,-3.893C109.874,-3.893 108.93,-3.611 108.93,-2.518C108.93,-1.764 109.609,-1.524 110.289,-1.375C111.134,-1.193 111.622,-1.068 111.622,-0.712C111.622,-0.298 111.192,-0.165 110.852,-0.165C110.388,-0.165 109.957,-0.373 109.949,-0.886L108.831,-0.886ZM113.619,0.506L114.92,0.506L114.92,-0.77L113.619,-0.77L113.619,0.506Z" style="fill:rgb(163,207,98);fill-rule:nonzero;"/>
                                </g>
                                <g transform="matrix(8.33333,0,0,8.33333,456.179,494.568)">
                                    <path d="M0,18.135C5.008,18.135 9.068,14.075 9.068,9.067C9.068,4.059 5.008,0 0,0C-5.008,0 -9.068,4.059 -9.068,9.067C-9.068,14.075 -5.008,18.135 0,18.135" style="fill:rgb(163,207,98);fill-rule:nonzero;"/>
                                </g>
                                <g transform="matrix(8.33333,0,0,8.33333,1039.37,818.906)">
                                    <path d="M0,12.266C3.387,12.266 6.133,9.52 6.133,6.133C6.133,2.746 3.387,0 0,0C-3.387,0 -6.133,2.746 -6.133,6.133C-6.133,9.52 -3.387,12.266 0,12.266" style="fill:rgb(163,207,98);fill-rule:nonzero;"/>
                                </g>
                                <g transform="matrix(8.33333,0,0,8.33333,1719.92,486.266)">
                                    <path d="M0,8.893C2.456,8.893 4.447,6.902 4.447,4.446C4.447,1.991 2.456,0 0,0C-2.456,0 -4.447,1.991 -4.447,4.446C-4.447,6.902 -2.456,8.893 0,8.893" style="fill:rgb(163,207,98);fill-rule:nonzero;"/>
                                </g>
                                <g transform="matrix(8.33333,0,0,8.33333,448.646,538.567)">
                                    <path d="M0,8.227L1.808,8.227L1.808,1.519L4.274,1.519L4.274,0L-2.466,0L-2.466,1.519L0,1.519L0,8.227Z" style="fill:white;fill-rule:nonzero;"/>
                                </g>
                                <g transform="matrix(8.33333,0,0,8.33333,1302.59,755.875)">
                                    <path d="M0,-14.382C-1.261,-15.786 -2.778,-16.891 -4.554,-17.696C-6.33,-18.502 -8.271,-18.905 -10.378,-18.905C-11.783,-18.905 -13.022,-18.759 -14.096,-18.471C-15.17,-18.182 -16.12,-17.81 -16.946,-17.356C-17.772,-16.901 -18.474,-16.416 -19.052,-15.9C-19.631,-15.383 -20.106,-14.878 -20.478,-14.382L-20.663,-14.382L-20.663,-26.705L-28.093,-26.705C-28.095,-26.7 -28.096,-26.696 -28.098,-26.691L-28.098,2.38C-22.995,3.343 -20.547,9.044 -16.574,11.083C-14.798,11.995 -12.794,12.323 -10.688,12.323C-8.417,12.323 -6.372,11.92 -4.554,11.114C-2.737,10.309 -1.188,9.204 0.093,7.8C1.373,6.396 2.344,4.743 3.005,2.843C3.665,0.944 3.996,-1.101 3.996,-3.291C3.996,-5.48 3.645,-7.525 2.943,-9.425C2.24,-11.324 1.26,-12.977 0,-14.382M-4.027,0.055C-4.42,1.129 -4.998,2.079 -5.762,2.905C-6.527,3.732 -7.446,4.392 -8.519,4.888C-9.594,5.383 -10.812,5.631 -12.175,5.631C-13.538,5.631 -14.757,5.383 -15.83,4.888C-16.905,4.392 -17.824,3.732 -18.587,2.905C-19.352,2.079 -19.93,1.129 -20.322,0.055C-20.715,-1.019 -20.911,-2.134 -20.911,-3.291C-20.911,-4.447 -20.715,-5.562 -20.322,-6.637C-19.93,-7.71 -19.352,-8.66 -18.587,-9.487C-17.824,-10.313 -16.905,-10.974 -15.83,-11.47C-14.757,-11.965 -13.538,-12.213 -12.175,-12.213C-10.812,-12.213 -9.594,-11.965 -8.519,-11.47C-7.446,-10.974 -6.527,-10.313 -5.762,-9.487C-4.998,-8.66 -4.42,-7.71 -4.027,-6.637C-3.635,-5.562 -3.439,-4.447 -3.439,-3.291C-3.439,-2.134 -3.635,-1.019 -4.027,0.055" style="fill:rgb(28,69,52);fill-rule:nonzero;"/>
                                </g>
                                <g transform="matrix(8.33333,0,0,8.33333,946.596,731.457)">
                                    <path d="M0,1.002C0,1.993 -0.124,2.944 -0.372,3.853C-0.62,4.762 -1.023,5.567 -1.58,6.269C-2.138,6.971 -2.84,7.529 -3.687,7.941C-4.534,8.355 -5.577,8.561 -6.816,8.561C-8.138,8.561 -9.161,8.262 -9.883,7.663C-10.606,7.064 -11.143,6.321 -11.494,5.432C-11.845,4.545 -12.062,3.595 -12.144,2.582C-12.228,1.57 -12.268,0.652 -12.268,-0.175L-12.268,-10.272C-14.98,-10.992 -17.491,-12.204 -19.703,-13.803L-19.703,3.542C-19.703,5.071 -19.518,6.538 -19.146,7.941C-18.774,9.346 -18.154,10.596 -17.287,11.69C-16.419,12.785 -15.295,13.652 -13.91,14.293C-12.526,14.932 -10.843,15.253 -8.86,15.253C-6.382,15.253 -4.465,14.644 -2.974,13.611C0.326,11.323 2.01,6.464 7.435,5.276L7.435,-14.251C5.241,-12.552 2.728,-11.248 0,-10.442L0,1.002Z" style="fill:rgb(28,69,52);fill-rule:nonzero;"/>
                                </g>
                                <g transform="matrix(8.33333,0,0,8.33333,702.377,822.415)">
                                    <path d="M0,-23.296C-0.867,-24.369 -1.994,-25.237 -3.377,-25.898C-4.761,-26.558 -6.444,-26.89 -8.426,-26.89C-10.905,-26.89 -12.812,-26.264 -14.313,-25.248C-17.848,-22.854 -18.077,-18.492 -24.722,-15.062L-24.722,3.594L-17.286,3.594L-17.286,-12.639C-17.286,-13.63 -17.163,-14.58 -16.915,-15.489C-16.667,-16.397 -16.264,-17.203 -15.707,-17.905C-15.149,-18.607 -14.447,-19.165 -13.6,-19.578C-12.754,-19.991 -11.711,-20.198 -10.471,-20.198C-9.191,-20.198 -8.179,-19.898 -7.435,-19.299C-6.691,-18.7 -6.145,-17.957 -5.793,-17.069C-5.443,-16.18 -5.226,-15.231 -5.143,-14.219C-5.06,-13.206 -5.019,-12.288 -5.019,-11.462L-5.019,3.594L2.416,3.594L2.416,-15.179C2.416,-16.707 2.231,-18.174 1.859,-19.578C1.487,-20.982 0.867,-22.221 0,-23.296" style="fill:rgb(28,69,52);fill-rule:nonzero;"/>
                                </g>
                                <g transform="matrix(8.33333,0,0,8.33333,1689.05,976.289)">
                                    <path d="M0,-44.611L0,-13.012C0,-12.31 -0.021,-11.587 -0.062,-10.843C-0.104,-10.1 -0.238,-9.418 -0.464,-8.799C-0.692,-8.179 -1.064,-7.674 -1.58,-7.281C-2.097,-6.889 -2.809,-6.692 -3.718,-6.692C-4.131,-6.692 -4.523,-6.723 -4.895,-6.785C-5.267,-6.847 -5.658,-6.92 -6.072,-7.002L-6.629,-0.558C-5.968,-0.352 -5.307,-0.208 -4.647,-0.125C-3.986,-0.042 -3.305,0 -2.602,0C-0.496,0 1.218,-0.332 2.54,-0.992C3.862,-1.653 4.884,-2.572 5.607,-3.749C6.33,-4.926 6.816,-6.311 7.063,-7.9C7.311,-9.491 7.435,-11.215 7.435,-13.074L7.435,-44.611L0,-44.611Z" style="fill:rgb(28,69,52);fill-rule:nonzero;"/>
                                </g>
                                <g transform="matrix(8.33333,0,0,8.33333,1629.94,781.893)">
                                    <path d="M0,-12.826C-0.847,-14.747 -1.993,-16.389 -3.439,-17.752C-4.885,-19.115 -6.599,-20.168 -8.581,-20.911C-10.564,-21.655 -12.671,-22.027 -14.901,-22.027C-17.132,-22.027 -19.238,-21.655 -21.221,-20.911C-23.204,-20.168 -24.918,-19.115 -26.364,-17.752C-27.81,-16.389 -28.956,-14.747 -29.802,-12.826C-30.649,-10.905 -31.073,-8.768 -31.073,-6.413C-31.073,-4.059 -30.649,-1.921 -29.802,-0.001C-28.956,1.92 -27.81,3.562 -26.364,4.925C-24.918,6.288 -23.204,7.342 -21.221,8.085C-19.238,8.829 -17.132,9.201 -14.901,9.201C-12.671,9.201 -10.564,8.829 -8.581,8.085C-6.599,7.342 -4.885,6.288 -3.439,4.925C-1.993,3.562 -0.847,1.92 0,-0.001C0.846,-1.921 1.27,-4.059 1.27,-6.413C1.27,-8.768 0.846,-10.905 0,-12.826M-6.754,-3.067C-7.147,-1.993 -7.725,-1.043 -8.489,-0.217C-9.253,0.609 -10.172,1.27 -11.246,1.765C-12.32,2.261 -13.538,2.509 -14.901,2.509C-16.264,2.509 -17.483,2.261 -18.557,1.765C-19.631,1.27 -20.55,0.609 -21.314,-0.217C-22.079,-1.043 -22.657,-1.993 -23.049,-3.067C-23.442,-4.141 -23.637,-5.257 -23.637,-6.413C-23.637,-7.569 -23.442,-8.685 -23.049,-9.759C-22.657,-10.833 -22.079,-11.782 -21.314,-12.609C-20.55,-13.435 -19.631,-14.096 -18.557,-14.592C-17.483,-15.088 -16.264,-15.335 -14.901,-15.335C-13.538,-15.335 -12.32,-15.088 -11.246,-14.592C-10.172,-14.096 -9.253,-13.435 -8.489,-12.609C-7.725,-11.782 -7.147,-10.833 -6.754,-9.759C-6.361,-8.685 -6.165,-7.569 -6.165,-6.413C-6.165,-5.257 -6.361,-4.141 -6.754,-3.067" style="fill:rgb(28,69,52);fill-rule:nonzero;"/>
                                </g>
                            </g>
                        </g>
                    </g>
                </g>
            </g>
        </g>
    </g>
</svg>
