<?xml version="1.0" encoding="UTF-8" standalone="no"?>
<!DOCTYPE svg PUBLIC "-//W3C//DTD SVG 1.1//EN" "http://www.w3.org/Graphics/SVG/1.1/DTD/svg11.dtd">
<svg width="100%" height="100%" viewBox="0 0 40 48" version="1.1" xmlns="http://www.w3.org/2000/svg" xmlns:xlink="http://www.w3.org/1999/xlink" xml:space="preserve" xmlns:serif="http://www.serif.com/" style="fill-rule:evenodd;clip-rule:evenodd;stroke-linejoin:round;stroke-miterlimit:2;">
    <g transform="matrix(1,0,0,1,-271,0)">
        <g id="Artboard3" transform="matrix(0.748432,0,0,1.36324,68.0656,0)">
            <rect x="271.146" y="0" width="53.445" height="35.21" style="fill:none;"/>
            <g transform="matrix(2.09495,0,0,1.15015,209.355,0.803894)">
                <g transform="matrix(0.076962,0,0,0.076962,4.41914,3.11969)">
                    <path d="M483.08,0L500.06,0C578.86,5.81 638.38,66.89 640.91,146.04C641.01,149.167 640.603,151.51 639.69,153.07C636.35,158.81 626.39,156.69 626.35,149.93C625.84,62.67 546.5,-1.52 460.75,18C437.777,23.227 417.457,34.103 399.79,50.63C342.62,104.1 342.41,194.41 399.94,247.95C424.88,271.16 456.88,283.58 491.13,284.06C501.57,284.21 501.76,298.7 489.79,298.54C405.86,297.42 339.81,228.16 342.27,144.49C344.55,66.79 405.97,4.99 483.08,0Z" style="fill:white;fill-rule:nonzero;"/>
                </g>
                <g transform="matrix(0.076962,0,0,0.076962,4.41914,3.11969)">
                    <path d="M584.55,149.97C583.91,201.31 543.75,241 492.64,242.3C486.62,242.45 482.65,235.69 487.34,231.77C488.373,230.903 490.133,230.403 492.62,230.27C538.01,227.83 571.37,194.73 572.57,149.48C572.81,140.78 584.66,141.09 584.55,149.97Z" style="fill:white;fill-rule:nonzero;"/>
                </g>
            </g>
            <g id="nuboj_small.svg" transform="matrix(0.0315408,0,0,0.0173163,318.057,31.56)">
                <g transform="matrix(1,0,0,1,-171,-179)">
                    <clipPath id="_clip1">
                        <rect x="0" y="0" width="342" height="358"/>
                    </clipPath>
                    <g clip-path="url(#_clip1)">
                        <g transform="matrix(1,0,0,1,0.00063644,-8.302)">
                            <g transform="matrix(8.33333,0,0,8.33333,75.566,8.302)">
                                <g>
                                    <path d="M0,18.135C5.008,18.135 9.068,14.075 9.068,9.067C9.068,4.059 5.008,0 0,0C-5.008,0 -9.068,4.059 -9.068,9.067C-9.068,14.075 -5.008,18.135 0,18.135" style="fill:rgb(163,207,98);fill-rule:nonzero;"/>
                                </g>
                            </g>
                            <g transform="matrix(8.33333,0,0,8.33333,68.033,52.301)">
                                <g>
                                    <path d="M0,8.227L1.808,8.227L1.808,1.519L4.274,1.519L4.274,0L-2.466,0L-2.466,1.519L0,1.519L0,8.227Z" style="fill:white;fill-rule:nonzero;"/>
                                </g>
                            </g>
                            <g transform="matrix(8.33333,0,0,8.33333,321.764,336.149)">
                                <g>
                                    <path d="M0,-23.296C-0.867,-24.369 -1.994,-25.237 -3.377,-25.898C-4.761,-26.558 -6.444,-26.89 -8.426,-26.89C-10.905,-26.89 -12.812,-26.264 -14.313,-25.248C-17.848,-22.854 -18.077,-18.492 -24.722,-15.062L-24.722,3.594L-17.286,3.594L-17.286,-12.639C-17.286,-13.63 -17.163,-14.58 -16.915,-15.489C-16.667,-16.397 -16.264,-17.203 -15.707,-17.905C-15.149,-18.607 -14.447,-19.165 -13.6,-19.578C-12.754,-19.991 -11.711,-20.198 -10.471,-20.198C-9.191,-20.198 -8.179,-19.898 -7.435,-19.299C-6.691,-18.7 -6.145,-17.957 -5.793,-17.069C-5.443,-16.18 -5.226,-15.231 -5.143,-14.219C-5.06,-13.206 -5.019,-12.288 -5.019,-11.462L-5.019,3.594L2.416,3.594L2.416,-15.179C2.416,-16.707 2.231,-18.174 1.859,-19.578C1.487,-20.982 0.867,-22.221 0,-23.296" style="fill:white;fill-rule:nonzero;"/>
                                </g>
                            </g>
                        </g>
                    </g>
                </g>
            </g>
        </g>
    </g>
</svg>
