<?xml version="1.0" encoding="UTF-8" standalone="no"?>
<!DOCTYPE svg PUBLIC "-//W3C//DTD SVG 1.1//EN" "http://www.w3.org/Graphics/SVG/1.1/DTD/svg11.dtd">
<svg width="100%" height="100%" viewBox="0 0 40 48" version="1.1" xmlns="http://www.w3.org/2000/svg" xmlns:xlink="http://www.w3.org/1999/xlink" xml:space="preserve" xmlns:serif="http://www.serif.com/" style="fill-rule:evenodd;clip-rule:evenodd;stroke-linejoin:round;stroke-miterlimit:2;">
    <g transform="matrix(1,0,0,1,-271,0)">
        <g id="Artboard3" transform="matrix(0.748432,0,0,1.36324,68.0656,0)">
            <rect x="271.146" y="0" width="53.445" height="35.21" style="fill:none;"/>
            <g transform="matrix(1.90356,0,0,1.04507,217.442,-2.06241)">
                <g transform="matrix(0.076962,0,0,0.076962,4.41914,3.11969)">
                    <path d="M483.08,0L500.06,0C578.86,5.81 638.38,66.89 640.91,146.04C641.01,149.167 640.603,151.51 639.69,153.07C636.35,158.81 626.39,156.69 626.35,149.93C625.84,62.67 546.5,-1.52 460.75,18C437.777,23.227 417.457,34.103 399.79,50.63C342.62,104.1 342.41,194.41 399.94,247.95C424.88,271.16 456.88,283.58 491.13,284.06C501.57,284.21 501.76,298.7 489.79,298.54C405.86,297.42 339.81,228.16 342.27,144.49C344.55,66.79 405.97,4.99 483.08,0Z" style="fill:white;fill-rule:nonzero;"/>
                </g>
                <g transform="matrix(0.076962,0,0,0.076962,4.41914,3.11969)">
                    <path d="M584.55,149.97C583.91,201.31 543.75,241 492.64,242.3C486.62,242.45 482.65,235.69 487.34,231.77C488.373,230.903 490.133,230.403 492.62,230.27C538.01,227.83 571.37,194.73 572.57,149.48C572.81,140.78 584.66,141.09 584.55,149.97Z" style="fill:white;fill-rule:nonzero;"/>
                </g>
            </g>
            <g id="nuboj_white.svg" transform="matrix(0.0323205,0,0,0.0177443,297.869,30.2577)">
                <g transform="matrix(1,0,0,1,-688.5,-245.5)">
                    <clipPath id="_clip1">
                        <rect x="0" y="0" width="1377" height="491"/>
                    </clipPath>
                    <g clip-path="url(#_clip1)">
                        <g transform="matrix(1,0,0,1,0.00063644,0)">
                            <g transform="matrix(8.33333,0,0,8.33333,75.566,8.302)">
                                <g>
                                    <path d="M0,18.135C5.008,18.135 9.068,14.075 9.068,9.067C9.068,4.059 5.008,0 0,0C-5.008,0 -9.068,4.059 -9.068,9.067C-9.068,14.075 -5.008,18.135 0,18.135" style="fill:rgb(163,207,98);fill-rule:nonzero;"/>
                                </g>
                            </g>
                            <g transform="matrix(8.33333,0,0,8.33333,658.757,332.64)">
                                <g>
                                    <path d="M0,12.266C3.387,12.266 6.133,9.52 6.133,6.133C6.133,2.746 3.387,0 0,0C-3.387,0 -6.133,2.746 -6.133,6.133C-6.133,9.52 -3.387,12.266 0,12.266" style="fill:rgb(163,207,98);fill-rule:nonzero;"/>
                                </g>
                            </g>
                            <g transform="matrix(8.33333,0,0,8.33333,1339.31,0)">
                                <g>
                                    <path d="M0,8.893C2.456,8.893 4.447,6.902 4.447,4.446C4.447,1.991 2.456,0 0,0C-2.456,0 -4.447,1.991 -4.447,4.446C-4.447,6.902 -2.456,8.893 0,8.893" style="fill:rgb(163,207,98);fill-rule:nonzero;"/>
                                </g>
                            </g>
                            <g transform="matrix(8.33333,0,0,8.33333,68.033,52.301)">
                                <g>
                                    <path d="M0,8.227L1.808,8.227L1.808,1.519L4.274,1.519L4.274,0L-2.466,0L-2.466,1.519L0,1.519L0,8.227Z" style="fill:white;fill-rule:nonzero;"/>
                                </g>
                            </g>
                            <g transform="matrix(8.33333,0,0,8.33333,921.977,269.609)">
                                <g>
                                    <path d="M0,-14.382C-1.261,-15.786 -2.778,-16.891 -4.554,-17.696C-6.33,-18.502 -8.271,-18.905 -10.378,-18.905C-11.783,-18.905 -13.022,-18.759 -14.096,-18.471C-15.17,-18.182 -16.12,-17.81 -16.946,-17.356C-17.772,-16.901 -18.474,-16.416 -19.052,-15.9C-19.631,-15.383 -20.106,-14.878 -20.478,-14.382L-20.663,-14.382L-20.663,-26.705L-28.093,-26.705C-28.095,-26.7 -28.096,-26.696 -28.098,-26.691L-28.098,2.38C-22.995,3.343 -20.547,9.044 -16.574,11.083C-14.798,11.995 -12.794,12.323 -10.688,12.323C-8.417,12.323 -6.372,11.92 -4.554,11.114C-2.737,10.309 -1.188,9.204 0.093,7.8C1.373,6.396 2.344,4.743 3.005,2.843C3.665,0.944 3.996,-1.101 3.996,-3.291C3.996,-5.48 3.645,-7.525 2.943,-9.425C2.24,-11.324 1.26,-12.977 0,-14.382M-4.027,0.055C-4.42,1.129 -4.998,2.079 -5.762,2.905C-6.527,3.732 -7.446,4.392 -8.519,4.888C-9.594,5.383 -10.812,5.631 -12.175,5.631C-13.538,5.631 -14.757,5.383 -15.83,4.888C-16.905,4.392 -17.824,3.732 -18.587,2.905C-19.352,2.079 -19.93,1.129 -20.322,0.055C-20.715,-1.019 -20.911,-2.134 -20.911,-3.291C-20.911,-4.447 -20.715,-5.562 -20.322,-6.637C-19.93,-7.71 -19.352,-8.66 -18.587,-9.487C-17.824,-10.313 -16.905,-10.974 -15.83,-11.47C-14.757,-11.965 -13.538,-12.213 -12.175,-12.213C-10.812,-12.213 -9.594,-11.965 -8.519,-11.47C-7.446,-10.974 -6.527,-10.313 -5.762,-9.487C-4.998,-8.66 -4.42,-7.71 -4.027,-6.637C-3.635,-5.562 -3.439,-4.447 -3.439,-3.291C-3.439,-2.134 -3.635,-1.019 -4.027,0.055" style="fill:white;fill-rule:nonzero;"/>
                                </g>
                            </g>
                            <g transform="matrix(8.33333,0,0,8.33333,565.983,245.191)">
                                <g>
                                    <path d="M0,1.002C0,1.993 -0.124,2.944 -0.372,3.853C-0.62,4.762 -1.023,5.567 -1.58,6.269C-2.138,6.971 -2.84,7.529 -3.687,7.941C-4.534,8.355 -5.577,8.561 -6.816,8.561C-8.138,8.561 -9.161,8.262 -9.883,7.663C-10.606,7.064 -11.143,6.321 -11.494,5.432C-11.845,4.545 -12.062,3.595 -12.144,2.582C-12.228,1.57 -12.268,0.652 -12.268,-0.175L-12.268,-10.272C-14.98,-10.992 -17.491,-12.204 -19.703,-13.803L-19.703,3.542C-19.703,5.071 -19.518,6.538 -19.146,7.941C-18.774,9.346 -18.154,10.596 -17.287,11.69C-16.419,12.785 -15.295,13.652 -13.91,14.293C-12.526,14.932 -10.843,15.253 -8.86,15.253C-6.382,15.253 -4.465,14.644 -2.974,13.611C0.326,11.323 2.01,6.464 7.435,5.276L7.435,-14.251C5.241,-12.552 2.728,-11.248 0,-10.442L0,1.002Z" style="fill:white;fill-rule:nonzero;"/>
                                </g>
                            </g>
                            <g transform="matrix(8.33333,0,0,8.33333,321.764,336.149)">
                                <g>
                                    <path d="M0,-23.296C-0.867,-24.369 -1.994,-25.237 -3.377,-25.898C-4.761,-26.558 -6.444,-26.89 -8.426,-26.89C-10.905,-26.89 -12.812,-26.264 -14.313,-25.248C-17.848,-22.854 -18.077,-18.492 -24.722,-15.062L-24.722,3.594L-17.286,3.594L-17.286,-12.639C-17.286,-13.63 -17.163,-14.58 -16.915,-15.489C-16.667,-16.397 -16.264,-17.203 -15.707,-17.905C-15.149,-18.607 -14.447,-19.165 -13.6,-19.578C-12.754,-19.991 -11.711,-20.198 -10.471,-20.198C-9.191,-20.198 -8.179,-19.898 -7.435,-19.299C-6.691,-18.7 -6.145,-17.957 -5.793,-17.069C-5.443,-16.18 -5.226,-15.231 -5.143,-14.219C-5.06,-13.206 -5.019,-12.288 -5.019,-11.462L-5.019,3.594L2.416,3.594L2.416,-15.179C2.416,-16.707 2.231,-18.174 1.859,-19.578C1.487,-20.982 0.867,-22.221 0,-23.296" style="fill:white;fill-rule:nonzero;"/>
                                </g>
                            </g>
                            <g transform="matrix(8.33333,0,0,8.33333,1308.44,490.023)">
                                <g>
                                    <path d="M0,-44.611L0,-13.012C0,-12.31 -0.021,-11.587 -0.062,-10.843C-0.104,-10.1 -0.238,-9.418 -0.464,-8.799C-0.692,-8.179 -1.064,-7.674 -1.58,-7.281C-2.097,-6.889 -2.809,-6.692 -3.718,-6.692C-4.131,-6.692 -4.523,-6.723 -4.895,-6.785C-5.267,-6.847 -5.658,-6.92 -6.072,-7.002L-6.629,-0.558C-5.968,-0.352 -5.307,-0.208 -4.647,-0.125C-3.986,-0.042 -3.305,0 -2.602,0C-0.496,0 1.218,-0.332 2.54,-0.992C3.862,-1.653 4.884,-2.572 5.607,-3.749C6.33,-4.926 6.816,-6.311 7.063,-7.9C7.311,-9.491 7.435,-11.215 7.435,-13.074L7.435,-44.611L0,-44.611Z" style="fill:white;fill-rule:nonzero;"/>
                                </g>
                            </g>
                            <g transform="matrix(8.33333,0,0,8.33333,1249.33,295.627)">
                                <g>
                                    <path d="M0,-12.826C-0.847,-14.747 -1.993,-16.389 -3.439,-17.752C-4.885,-19.115 -6.599,-20.168 -8.581,-20.911C-10.564,-21.655 -12.671,-22.027 -14.901,-22.027C-17.132,-22.027 -19.238,-21.655 -21.221,-20.911C-23.204,-20.168 -24.918,-19.115 -26.364,-17.752C-27.81,-16.389 -28.956,-14.747 -29.802,-12.826C-30.649,-10.905 -31.073,-8.768 -31.073,-6.413C-31.073,-4.059 -30.649,-1.921 -29.802,-0.001C-28.956,1.92 -27.81,3.562 -26.364,4.925C-24.918,6.288 -23.204,7.342 -21.221,8.085C-19.238,8.829 -17.132,9.201 -14.901,9.201C-12.671,9.201 -10.564,8.829 -8.581,8.085C-6.599,7.342 -4.885,6.288 -3.439,4.925C-1.993,3.562 -0.847,1.92 0,-0.001C0.846,-1.921 1.27,-4.059 1.27,-6.413C1.27,-8.768 0.846,-10.905 0,-12.826M-6.754,-3.067C-7.147,-1.993 -7.725,-1.043 -8.489,-0.217C-9.253,0.609 -10.172,1.27 -11.246,1.765C-12.32,2.261 -13.538,2.509 -14.901,2.509C-16.264,2.509 -17.483,2.261 -18.557,1.765C-19.631,1.27 -20.55,0.609 -21.314,-0.217C-22.079,-1.043 -22.657,-1.993 -23.049,-3.067C-23.442,-4.141 -23.637,-5.257 -23.637,-6.413C-23.637,-7.569 -23.442,-8.685 -23.049,-9.759C-22.657,-10.833 -22.079,-11.782 -21.314,-12.609C-20.55,-13.435 -19.631,-14.096 -18.557,-14.592C-17.483,-15.088 -16.264,-15.335 -14.901,-15.335C-13.538,-15.335 -12.32,-15.088 -11.246,-14.592C-10.172,-14.096 -9.253,-13.435 -8.489,-12.609C-7.725,-11.782 -7.147,-10.833 -6.754,-9.759C-6.361,-8.685 -6.165,-7.569 -6.165,-6.413C-6.165,-5.257 -6.361,-4.141 -6.754,-3.067" style="fill:white;fill-rule:nonzero;"/>
                                </g>
                            </g>
                        </g>
                    </g>
                </g>
            </g>
        </g>
    </g>
</svg>
